# xmcd CD database file
#
# Track frame offsets:
#	150
#	9260
#	43706
#	63904
#	106009
#	148709
#	182400
#
# Disc length: 2703 seconds
#
# Revision: 0
# Processed by: cddbd v1.5.2PL0 Copyright (c) Steve Scherf et al.
# Submitted via: CDex 1.70beta2
#
DISCID=4e0a8d07
DTITLE=Sun Ra and His Arkestra - Live at Montreux - disc 1
DYEAR=1976
DGENRE=Jazz
TTITLE0=For The Sunrise
TTITLE1=Of The Other Tomorrow
TTITLE2=From Out Where Others Dwell
TTITLE3=On Sound Infinity Spheres
TTITLE4=The House Of Eternal Being
TTITLE5=Gods Of The Thunder Realm
TTITLE6=Lights On A Satellite
EXTD=YEAR: 1976
EXTT0=
EXTT1=
EXTT2=
EXTT3=
EXTT4=
EXTT5=
EXTT6=
PLAYORDER=
